<svg xmlns="http://www.w3.org/2000/svg" xmlns:xlink="http://www.w3.org/1999/xlink" width="250" zoomAndPan="magnify" viewBox="0 0 187.5 74.999997" height="100" preserveAspectRatio="xMidYMid meet" version="1.0"><defs><g/><clipPath id="0dbe77b805"><path d="M 20 6 L 170 6 L 170 74.898438 L 20 74.898438 Z M 20 6 " clip-rule="nonzero"/></clipPath><clipPath id="1ef58afc55"><path d="M 1 0.0820312 L 38 0.0820312 L 38 56 L 1 56 Z M 1 0.0820312 " clip-rule="nonzero"/></clipPath><clipPath id="86d8ccfab2"><path d="M 71 0.0820312 L 85 0.0820312 L 85 56 L 71 56 Z M 71 0.0820312 " clip-rule="nonzero"/></clipPath><clipPath id="9043e13058"><path d="M 107 14 L 149.46875 14 L 149.46875 55 L 107 55 Z M 107 14 " clip-rule="nonzero"/></clipPath><clipPath id="9cfae57fdc"><path d="M 123.421875 28.894531 L 137.3125 28.894531 L 137.3125 42.214844 L 123.421875 42.214844 Z M 123.421875 28.894531 " clip-rule="nonzero"/></clipPath><clipPath id="2c1fe1345b"><path d="M 130.355469 28.894531 C 126.523438 28.894531 123.421875 31.875 123.421875 35.554688 C 123.421875 39.230469 126.523438 42.214844 130.355469 42.214844 C 134.183594 42.214844 137.289062 39.230469 137.289062 35.554688 C 137.289062 31.875 134.183594 28.894531 130.355469 28.894531 Z M 130.355469 28.894531 " clip-rule="nonzero"/></clipPath><clipPath id="d4a02687e5"><path d="M 0.421875 0.894531 L 14.3125 0.894531 L 14.3125 14.214844 L 0.421875 14.214844 Z M 0.421875 0.894531 " clip-rule="nonzero"/></clipPath><clipPath id="a9757ba5ea"><path d="M 7.355469 0.894531 C 3.523438 0.894531 0.421875 3.875 0.421875 7.554688 C 0.421875 11.230469 3.523438 14.214844 7.355469 14.214844 C 11.183594 14.214844 14.289062 11.230469 14.289062 7.554688 C 14.289062 3.875 11.183594 0.894531 7.355469 0.894531 Z M 7.355469 0.894531 " clip-rule="nonzero"/></clipPath><clipPath id="c1c167d666"><rect x="0" width="15" y="0" height="15"/></clipPath><clipPath id="26904928ec"><rect x="0" width="150" y="0" height="69"/></clipPath></defs><g clip-path="url(#0dbe77b805)"><g transform="matrix(1, 0, 0, 1, 20, 6)"><g clip-path="url(#26904928ec)"><g clip-path="url(#1ef58afc55)"><g fill="#000000" fill-opacity="1"><g transform="translate(0.998423, 55.005864)"><g><path d="M 20.46875 -6.875 C 19.726562 -8.125 18.90625 -9.289062 18 -10.375 C 17.101562 -11.457031 16.050781 -12.414062 14.84375 -13.25 C 14.519531 -13.476562 14.195312 -13.59375 13.875 -13.59375 C 13.832031 -13.59375 13.773438 -13.582031 13.703125 -13.5625 C 13.628906 -13.539062 13.550781 -13.53125 13.46875 -13.53125 C 12.957031 -13.4375 12.582031 -13.160156 12.34375 -12.703125 C 11.75 -11.679688 11.289062 -10.773438 10.96875 -9.984375 C 10.644531 -9.203125 10.457031 -8.1875 10.40625 -6.9375 C 10.363281 -6.195312 10.363281 -5.46875 10.40625 -4.75 C 10.457031 -4.03125 10.503906 -3.300781 10.546875 -2.5625 C 10.640625 -1.78125 10.457031 -1.203125 10 -0.828125 C 9.851562 -0.691406 9.6875 -0.597656 9.5 -0.546875 C 9.320312 -0.503906 9.113281 -0.460938 8.875 -0.421875 C 8.28125 -0.273438 7.40625 -0.132812 6.25 0 C 5.09375 0.132812 3.992188 0.125 2.953125 -0.03125 C 1.910156 -0.195312 1.226562 -0.671875 0.90625 -1.453125 C 0.488281 -2.566406 0.234375 -3.78125 0.140625 -5.09375 C 0.046875 -6.414062 0.0195312 -7.757812 0.0625 -9.125 C 0.113281 -10.488281 0.113281 -11.75 0.0625 -12.90625 C 0.0195312 -15.082031 0 -17.253906 0 -19.421875 C 0 -21.597656 0 -23.773438 0 -25.953125 C 0.0390625 -30.253906 0.0820312 -34.566406 0.125 -38.890625 C 0.175781 -43.210938 0.179688 -47.550781 0.140625 -51.90625 C 0.140625 -53.570312 0.898438 -54.378906 2.421875 -54.328125 C 2.984375 -54.328125 3.691406 -54.375 4.546875 -54.46875 C 5.398438 -54.5625 6.253906 -54.597656 7.109375 -54.578125 C 7.960938 -54.554688 8.703125 -54.394531 9.328125 -54.09375 C 9.953125 -53.789062 10.289062 -53.242188 10.34375 -52.453125 C 10.4375 -51.253906 10.46875 -50.03125 10.4375 -48.78125 C 10.414062 -47.53125 10.40625 -46.304688 10.40625 -45.109375 C 10.40625 -43.023438 10.40625 -40.953125 10.40625 -38.890625 C 10.40625 -36.835938 10.382812 -34.769531 10.34375 -32.6875 C 10.34375 -31.851562 10.457031 -31.171875 10.6875 -30.640625 C 10.914062 -30.109375 11.332031 -29.5625 11.9375 -29 C 12.257812 -28.675781 12.648438 -28.515625 13.109375 -28.515625 C 13.617188 -28.515625 14.0625 -28.703125 14.4375 -29.078125 C 16.332031 -31.109375 18.226562 -33.148438 20.125 -35.203125 C 22.019531 -37.265625 24.054688 -39.15625 26.234375 -40.875 C 27.847656 -42.21875 29.628906 -42.75 31.578125 -42.46875 C 32.265625 -42.414062 33.035156 -42.238281 33.890625 -41.9375 C 34.753906 -41.644531 35.414062 -41.21875 35.875 -40.65625 C 36.332031 -40.101562 36.285156 -39.390625 35.734375 -38.515625 C 35.546875 -38.191406 35.3125 -37.890625 35.03125 -37.609375 C 34.757812 -37.328125 34.484375 -37.070312 34.203125 -36.84375 C 33.328125 -36.0625 32.285156 -35.132812 31.078125 -34.0625 C 29.878906 -33 28.710938 -31.84375 27.578125 -30.59375 C 26.441406 -29.351562 25.492188 -28.0625 24.734375 -26.71875 C 23.972656 -25.375 23.554688 -24.019531 23.484375 -22.65625 C 23.421875 -21.289062 23.894531 -19.9375 24.90625 -18.59375 C 26.894531 -15.914062 28.960938 -13.140625 31.109375 -10.265625 C 33.265625 -7.398438 34.992188 -4.414062 36.296875 -1.3125 C 35.410156 -0.71875 34.351562 -0.40625 33.125 -0.375 C 31.90625 -0.351562 30.660156 -0.445312 29.390625 -0.65625 C 28.117188 -0.863281 26.972656 -0.992188 25.953125 -1.046875 C 24.929688 -1.128906 24.117188 -1.519531 23.515625 -2.21875 C 22.921875 -2.914062 22.367188 -3.679688 21.859375 -4.515625 C 21.671875 -4.929688 21.445312 -5.332031 21.1875 -5.71875 C 20.9375 -6.113281 20.695312 -6.5 20.46875 -6.875 Z M 20.46875 -6.875 "/></g></g></g></g><g fill="#000000" fill-opacity="1"><g transform="translate(37.429377, 55.005864)"><g><path d="M 33.9375 -1.734375 C 33.5625 -1.273438 32.984375 -1.019531 32.203125 -0.96875 C 31.460938 -0.96875 30.742188 -1.117188 30.046875 -1.421875 C 29.347656 -1.722656 28.664062 -2.023438 28 -2.328125 C 27.332031 -2.628906 26.601562 -2.78125 25.8125 -2.78125 C 25.300781 -2.78125 24.789062 -2.742188 24.28125 -2.671875 C 23.769531 -2.597656 23.3125 -2.515625 22.90625 -2.421875 L 22.546875 -2.359375 C 21.210938 -2.128906 19.90625 -1.828125 18.625 -1.453125 C 17.351562 -1.085938 16.164062 -0.71875 15.0625 -0.34375 C 14.550781 -0.207031 14.03125 -0.09375 13.5 0 C 12.96875 0.09375 12.421875 0.140625 11.859375 0.140625 C 8.484375 0.140625 5.640625 -1.203125 3.328125 -3.890625 C 0.691406 -6.890625 -0.347656 -10.585938 0.203125 -14.984375 C 0.441406 -16.742188 1.054688 -18.316406 2.046875 -19.703125 C 3.035156 -21.085938 4.296875 -22.15625 5.828125 -22.90625 C 6.617188 -23.269531 7.453125 -23.53125 8.328125 -23.6875 C 9.203125 -23.851562 10.101562 -24.003906 11.03125 -24.140625 C 11.257812 -24.140625 11.46875 -24.148438 11.65625 -24.171875 C 11.84375 -24.203125 12.03125 -24.238281 12.21875 -24.28125 L 21.296875 -25.53125 C 22.503906 -25.71875 23.257812 -26.078125 23.5625 -26.609375 C 23.863281 -27.140625 24.035156 -27.566406 24.078125 -27.890625 C 24.171875 -28.679688 23.925781 -29.398438 23.34375 -30.046875 C 22.769531 -30.691406 22.085938 -31.128906 21.296875 -31.359375 C 19.867188 -31.921875 18.390625 -32.203125 16.859375 -32.203125 L 16.65625 -32.203125 C 15.21875 -32.148438 13.847656 -31.9375 12.546875 -31.5625 C 11.253906 -31.195312 10.007812 -30.757812 8.8125 -30.25 C 8.4375 -30.070312 8 -29.984375 7.5 -29.984375 C 6.476562 -29.984375 5.46875 -30.316406 4.46875 -30.984375 C 3.476562 -31.648438 2.773438 -32.445312 2.359375 -33.375 C 2.171875 -33.75 2.085938 -34.0625 2.109375 -34.3125 C 2.140625 -34.5625 2.175781 -34.757812 2.21875 -34.90625 C 2.5 -35.507812 3.039062 -36.050781 3.84375 -36.53125 C 4.65625 -37.019531 5.507812 -37.4375 6.40625 -37.78125 C 7.3125 -38.125 8.066406 -38.390625 8.671875 -38.578125 C 12.003906 -39.640625 15.359375 -40.171875 18.734375 -40.171875 C 19.054688 -40.171875 19.378906 -40.171875 19.703125 -40.171875 C 20.023438 -40.171875 20.347656 -40.148438 20.671875 -40.109375 C 22.296875 -40.015625 24.085938 -39.703125 26.046875 -39.171875 C 28.015625 -38.640625 29.695312 -37.632812 31.09375 -36.15625 C 32.707031 -34.394531 33.675781 -32.632812 34 -30.875 C 34.375 -28.882812 34.5 -26.8125 34.375 -24.65625 C 34.257812 -22.507812 34.226562 -20.421875 34.28125 -18.390625 C 34.28125 -16.304688 34.28125 -14.210938 34.28125 -12.109375 C 34.28125 -10.003906 34.300781 -7.929688 34.34375 -5.890625 C 34.34375 -5.203125 34.378906 -4.460938 34.453125 -3.671875 C 34.523438 -2.890625 34.351562 -2.242188 33.9375 -1.734375 Z M 23.875 -13.671875 C 24.238281 -14.410156 24.351562 -15.035156 24.21875 -15.546875 C 24.082031 -16.054688 23.941406 -16.398438 23.796875 -16.578125 C 23.609375 -16.859375 23.316406 -17.125 22.921875 -17.375 C 22.535156 -17.632812 21.992188 -17.785156 21.296875 -17.828125 L 20.75 -17.90625 C 20.332031 -17.945312 19.90625 -17.96875 19.46875 -17.96875 C 19.03125 -17.96875 18.554688 -17.96875 18.046875 -17.96875 C 17.253906 -17.96875 16.300781 -17.882812 15.1875 -17.71875 C 14.082031 -17.5625 13.019531 -17.140625 12 -16.453125 C 11.3125 -15.890625 10.875 -15.304688 10.6875 -14.703125 C 10.5 -14.203125 10.472656 -13.554688 10.609375 -12.765625 C 10.941406 -11.328125 11.566406 -10.210938 12.484375 -9.421875 C 13.410156 -8.640625 14.523438 -8.25 15.828125 -8.25 C 17.441406 -8.25 19.035156 -8.78125 20.609375 -9.84375 C 22.179688 -10.914062 23.269531 -12.191406 23.875 -13.671875 Z M 23.875 -13.671875 "/></g></g></g><g clip-path="url(#86d8ccfab2)"><g fill="#000000" fill-opacity="1"><g transform="translate(72.056097, 55.005864)"><g><path d="M 2.640625 -43.71875 C 1.617188 -44.363281 0.875 -45.273438 0.40625 -46.453125 C -0.0507812 -47.628906 -0.0703125 -48.914062 0.34375 -50.3125 C 1.132812 -53.039062 2.984375 -54.453125 5.890625 -54.546875 L 6.03125 -54.546875 C 7.46875 -54.546875 8.671875 -54.160156 9.640625 -53.390625 C 10.617188 -52.628906 11.269531 -51.578125 11.59375 -50.234375 C 12.007812 -48.566406 11.847656 -47.039062 11.109375 -45.65625 C 10.367188 -44.269531 9.117188 -43.367188 7.359375 -42.953125 C 6.472656 -42.765625 5.625 -42.738281 4.8125 -42.875 C 4.007812 -43.019531 3.285156 -43.300781 2.640625 -43.71875 Z M 1.671875 -36.78125 C 2.316406 -37.195312 3.238281 -37.378906 4.4375 -37.328125 C 5.132812 -37.328125 5.898438 -37.347656 6.734375 -37.390625 C 7.566406 -37.441406 8.335938 -37.363281 9.046875 -37.15625 C 9.765625 -36.945312 10.242188 -36.472656 10.484375 -35.734375 C 10.898438 -34.578125 11.035156 -33.175781 10.890625 -31.53125 C 10.753906 -29.894531 10.6875 -28.472656 10.6875 -27.265625 C 10.726562 -24.441406 10.75 -21.640625 10.75 -18.859375 C 10.75 -16.085938 10.773438 -13.296875 10.828125 -10.484375 C 10.828125 -10.015625 10.882812 -9.234375 11 -8.140625 C 11.113281 -7.054688 11.179688 -5.890625 11.203125 -4.640625 C 11.222656 -3.398438 11.09375 -2.335938 10.8125 -1.453125 C 10.539062 -0.578125 9.988281 -0.113281 9.15625 -0.0625 C 8.09375 -0.0195312 6.984375 0.0078125 5.828125 0.03125 C 4.671875 0.0507812 3.5625 -0.00390625 2.5 -0.140625 C 1.757812 -0.234375 1.25 -0.632812 0.96875 -1.34375 C 0.695312 -2.0625 0.546875 -2.929688 0.515625 -3.953125 C 0.492188 -4.972656 0.53125 -5.941406 0.625 -6.859375 C 0.71875 -7.785156 0.765625 -8.503906 0.765625 -9.015625 C 0.710938 -10.910156 0.675781 -12.816406 0.65625 -14.734375 C 0.632812 -16.660156 0.625 -18.570312 0.625 -20.46875 C 0.582031 -22.09375 0.5625 -23.710938 0.5625 -25.328125 C 0.5625 -26.941406 0.535156 -28.535156 0.484375 -30.109375 C 0.484375 -31.453125 0.457031 -32.75 0.40625 -34 C 0.363281 -35.25 0.785156 -36.175781 1.671875 -36.78125 Z M 1.671875 -36.78125 "/></g></g></g></g><g fill="#000000" fill-opacity="1"><g transform="translate(84.060555, 55.005864)"><g><path d="M 21.578125 -30.734375 C 21.347656 -30.597656 21.082031 -30.492188 20.78125 -30.421875 C 20.476562 -30.359375 20.191406 -30.28125 19.921875 -30.1875 C 19.410156 -30.132812 18.875 -30.097656 18.3125 -30.078125 C 17.757812 -30.054688 17.226562 -29.976562 16.71875 -29.84375 C 15.613281 -29.519531 14.664062 -28.925781 13.875 -28.0625 C 13.09375 -27.207031 12.492188 -26.25 12.078125 -25.1875 C 11.285156 -23.0625 10.785156 -20.75 10.578125 -18.25 C 10.367188 -15.75 10.300781 -13.226562 10.375 -10.6875 C 10.445312 -8.144531 10.457031 -5.738281 10.40625 -3.46875 L 10.40625 -2.421875 C 10.40625 -1.546875 10.066406 -0.929688 9.390625 -0.578125 C 8.722656 -0.234375 7.914062 -0.0507812 6.96875 -0.03125 C 6.019531 -0.0078125 5.09375 -0.046875 4.1875 -0.140625 C 3.289062 -0.234375 2.585938 -0.300781 2.078125 -0.34375 C 1.617188 -0.34375 1.273438 -0.4375 1.046875 -0.625 C 0.628906 -0.90625 0.359375 -1.4375 0.234375 -2.21875 C 0.117188 -3.007812 0.0625 -3.890625 0.0625 -4.859375 C 0.0625 -5.828125 0.0976562 -6.75 0.171875 -7.625 C 0.242188 -8.507812 0.28125 -9.160156 0.28125 -9.578125 C 0.375 -11.191406 0.460938 -12.804688 0.546875 -14.421875 C 0.640625 -16.046875 0.6875 -17.671875 0.6875 -19.296875 C 0.6875 -22.441406 0.6875 -25.597656 0.6875 -28.765625 C 0.6875 -31.929688 0.6875 -35.109375 0.6875 -38.296875 C 0.6875 -39.085938 0.867188 -39.585938 1.234375 -39.796875 C 1.609375 -40.003906 2.070312 -40.082031 2.625 -40.03125 C 3.1875 -39.988281 3.742188 -39.988281 4.296875 -40.03125 C 5.273438 -40.175781 6.222656 -40.25 7.140625 -40.25 C 9.046875 -40.25 10.503906 -39.644531 11.515625 -38.4375 C 11.890625 -38.019531 12.351562 -37.8125 12.90625 -37.8125 C 13.09375 -37.8125 13.253906 -37.835938 13.390625 -37.890625 C 13.992188 -37.929688 14.710938 -38.132812 15.546875 -38.5 C 16.378906 -38.875 17.242188 -39.234375 18.140625 -39.578125 C 19.046875 -39.929688 19.890625 -40.164062 20.671875 -40.28125 C 21.460938 -40.394531 22.113281 -40.253906 22.625 -39.859375 C 23.132812 -39.472656 23.390625 -38.675781 23.390625 -37.46875 C 23.390625 -36.863281 23.375 -36.25 23.34375 -35.625 C 23.320312 -35 23.289062 -34.390625 23.25 -33.796875 C 23.195312 -33.472656 23.144531 -33.125 23.09375 -32.75 C 23.050781 -32.382812 22.914062 -32.0625 22.6875 -31.78125 C 22.414062 -31.269531 22.046875 -30.921875 21.578125 -30.734375 Z M 21.578125 -30.734375 "/></g></g></g><g clip-path="url(#9043e13058)"><g fill="#000000" fill-opacity="1"><g transform="translate(107.584325, 55.005864)"><g><path d="M 0.0625 -20.125 C 0.0195312 -22.71875 0.53125 -25.296875 1.59375 -27.859375 C 2.65625 -30.429688 4.132812 -32.6875 6.03125 -34.625 C 7.84375 -36.476562 9.90625 -37.890625 12.21875 -38.859375 C 14.53125 -39.828125 16.910156 -40.3125 19.359375 -40.3125 C 19.585938 -40.3125 19.828125 -40.3125 20.078125 -40.3125 C 20.335938 -40.3125 20.582031 -40.3125 20.8125 -40.3125 C 20.8125 -40.3125 20.820312 -40.3125 20.84375 -40.3125 C 20.875 -40.3125 20.890625 -40.3125 20.890625 -40.3125 C 24.910156 -40.3125 28.457031 -39.476562 31.53125 -37.8125 C 34.613281 -36.144531 37.03125 -33.832031 38.78125 -30.875 C 40.539062 -27.914062 41.421875 -24.492188 41.421875 -20.609375 C 41.421875 -14.546875 39.523438 -9.617188 35.734375 -5.828125 C 33.878906 -3.972656 31.671875 -2.546875 29.109375 -1.546875 C 26.546875 -0.554688 23.757812 -0.0625 20.75 -0.0625 C 17.882812 -0.0625 15.210938 -0.582031 12.734375 -1.625 C 10.253906 -2.664062 8.078125 -4.097656 6.203125 -5.921875 C 4.335938 -7.753906 2.859375 -9.882812 1.765625 -12.3125 C 0.679688 -14.738281 0.113281 -17.34375 0.0625 -20.125 Z M 20.546875 -32.0625 C 18.921875 -32.0625 17.34375 -31.539062 15.8125 -30.5 C 14.289062 -29.457031 13.03125 -28.113281 12.03125 -26.46875 C 11.039062 -24.832031 10.523438 -23.109375 10.484375 -21.296875 C 10.429688 -19.304688 10.75 -17.382812 11.4375 -15.53125 C 12.132812 -13.6875 13.203125 -12.140625 14.640625 -10.890625 C 16.078125 -9.640625 17.859375 -8.898438 19.984375 -8.671875 C 22.335938 -8.441406 24.320312 -8.8125 25.9375 -9.78125 C 27.5625 -10.75 28.8125 -12.078125 29.6875 -13.765625 C 30.570312 -15.460938 31.0625 -17.316406 31.15625 -19.328125 C 31.25 -21.335938 30.945312 -23.265625 30.25 -25.109375 C 29.5625 -26.960938 28.453125 -28.523438 26.921875 -29.796875 C 25.398438 -31.078125 23.457031 -31.832031 21.09375 -32.0625 C 21 -32.0625 20.90625 -32.0625 20.8125 -32.0625 C 20.71875 -32.0625 20.628906 -32.0625 20.546875 -32.0625 Z M 20.546875 -32.0625 "/></g></g></g></g><g clip-path="url(#9cfae57fdc)"><g clip-path="url(#2c1fe1345b)"><g transform="matrix(1, 0, 0, 1, 123, 28)"><g clip-path="url(#c1c167d666)"><g clip-path="url(#d4a02687e5)"><g clip-path="url(#a9757ba5ea)"><path fill="#000000" d="M 0.421875 0.894531 L 14.3125 0.894531 L 14.3125 14.214844 L 0.421875 14.214844 Z M 0.421875 0.894531 " fill-opacity="1" fill-rule="nonzero"/></g></g></g></g></g></g></g></g></g></svg>